<mxfile host="app.diagrams.net" modified="2024-05-20T08:52:14.362Z" agent="Mozilla/5.0 (Windows NT 10.0; Win64; x64; rv:126.0) Gecko/20100101 Firefox/126.0" etag="8v6GjHGiDFwa5rFD-p1X" version="24.4.4" type="device">
  <diagram name="Sivu-1" id="vWKF2rC6TouZD20ziSXc">
    <mxGraphModel dx="1434" dy="781" grid="1" gridSize="10" guides="1" tooltips="1" connect="1" arrows="1" fold="1" page="1" pageScale="1" pageWidth="1169" pageHeight="827" math="0" shadow="0">
      <root>
        <mxCell id="0" />
        <mxCell id="1" parent="0" />
        <mxCell id="RZ-fybv0RQsIUhOuBCEJ-3" value="&lt;p style=&quot;line-height: 120%; padding-bottom: 500px;&quot;&gt;«subsystem»&lt;br&gt;&lt;b&gt;Presenter&lt;/b&gt;&lt;/p&gt;" style="html=1;dropTarget=0;whiteSpace=wrap;" vertex="1" parent="1">
          <mxGeometry x="670" y="169" width="300" height="538" as="geometry" />
        </mxCell>
        <mxCell id="RZ-fybv0RQsIUhOuBCEJ-4" value="" style="shape=module;jettyWidth=8;jettyHeight=4;" vertex="1" parent="RZ-fybv0RQsIUhOuBCEJ-3">
          <mxGeometry x="1" width="20" height="20" relative="1" as="geometry">
            <mxPoint x="-27" y="7" as="offset" />
          </mxGeometry>
        </mxCell>
        <mxCell id="RZ-fybv0RQsIUhOuBCEJ-9" value="&lt;p style=&quot;line-height: 120%; padding-bottom: 500px;&quot;&gt;«subsystem»&lt;br&gt;&lt;b&gt;Model&lt;/b&gt;&lt;br&gt;&lt;/p&gt;" style="html=1;dropTarget=0;whiteSpace=wrap;" vertex="1" parent="1">
          <mxGeometry x="1000" y="170" width="520" height="537" as="geometry" />
        </mxCell>
        <mxCell id="RZ-fybv0RQsIUhOuBCEJ-10" value="" style="shape=module;jettyWidth=8;jettyHeight=4;" vertex="1" parent="RZ-fybv0RQsIUhOuBCEJ-9">
          <mxGeometry x="1" width="20" height="20" relative="1" as="geometry">
            <mxPoint x="-27" y="7" as="offset" />
          </mxGeometry>
        </mxCell>
        <mxCell id="RZ-fybv0RQsIUhOuBCEJ-11" value="«repository»&lt;br&gt;&lt;b&gt;DatabaseService&lt;/b&gt;" style="html=1;dropTarget=0;whiteSpace=wrap;" vertex="1" parent="1">
          <mxGeometry x="1300" y="408" width="180" height="90" as="geometry" />
        </mxCell>
        <mxCell id="RZ-fybv0RQsIUhOuBCEJ-12" value="" style="shape=module;jettyWidth=8;jettyHeight=4;" vertex="1" parent="RZ-fybv0RQsIUhOuBCEJ-11">
          <mxGeometry x="1" width="20" height="20" relative="1" as="geometry">
            <mxPoint x="-27" y="7" as="offset" />
          </mxGeometry>
        </mxCell>
        <mxCell id="RZ-fybv0RQsIUhOuBCEJ-13" value="«service»&lt;br&gt;&lt;b&gt;CyclePredictionService&lt;/b&gt;" style="html=1;dropTarget=0;whiteSpace=wrap;" vertex="1" parent="1">
          <mxGeometry x="1050" y="560" width="180" height="90" as="geometry" />
        </mxCell>
        <mxCell id="RZ-fybv0RQsIUhOuBCEJ-14" value="" style="shape=module;jettyWidth=8;jettyHeight=4;" vertex="1" parent="RZ-fybv0RQsIUhOuBCEJ-13">
          <mxGeometry x="1" width="20" height="20" relative="1" as="geometry">
            <mxPoint x="-27" y="7" as="offset" />
          </mxGeometry>
        </mxCell>
        <mxCell id="RZ-fybv0RQsIUhOuBCEJ-15" value="«datamodel»&lt;br&gt;&lt;b&gt;UserData&lt;/b&gt;" style="html=1;dropTarget=0;whiteSpace=wrap;" vertex="1" parent="1">
          <mxGeometry x="1300" y="260" width="180" height="90" as="geometry" />
        </mxCell>
        <mxCell id="RZ-fybv0RQsIUhOuBCEJ-16" value="" style="shape=module;jettyWidth=8;jettyHeight=4;" vertex="1" parent="RZ-fybv0RQsIUhOuBCEJ-15">
          <mxGeometry x="1" width="20" height="20" relative="1" as="geometry">
            <mxPoint x="-27" y="7" as="offset" />
          </mxGeometry>
        </mxCell>
        <mxCell id="RZ-fybv0RQsIUhOuBCEJ-17" value="«datamodel»&lt;br&gt;&lt;b&gt;CycleData&lt;/b&gt;" style="html=1;dropTarget=0;whiteSpace=wrap;" vertex="1" parent="1">
          <mxGeometry x="1300" y="560" width="180" height="90" as="geometry" />
        </mxCell>
        <mxCell id="RZ-fybv0RQsIUhOuBCEJ-18" value="" style="shape=module;jettyWidth=8;jettyHeight=4;" vertex="1" parent="RZ-fybv0RQsIUhOuBCEJ-17">
          <mxGeometry x="1" width="20" height="20" relative="1" as="geometry">
            <mxPoint x="-27" y="7" as="offset" />
          </mxGeometry>
        </mxCell>
        <mxCell id="RZ-fybv0RQsIUhOuBCEJ-26" value="" style="rounded=0;orthogonalLoop=1;jettySize=auto;html=1;endArrow=halfCircle;endFill=0;endSize=6;strokeWidth=1;sketch=0;exitX=0.5;exitY=1;exitDx=0;exitDy=0;" edge="1" target="RZ-fybv0RQsIUhOuBCEJ-28" parent="1" source="RZ-fybv0RQsIUhOuBCEJ-15">
          <mxGeometry relative="1" as="geometry">
            <mxPoint x="1230" y="455" as="sourcePoint" />
          </mxGeometry>
        </mxCell>
        <mxCell id="RZ-fybv0RQsIUhOuBCEJ-27" value="" style="rounded=0;orthogonalLoop=1;jettySize=auto;html=1;endArrow=oval;endFill=0;sketch=0;sourcePerimeterSpacing=0;targetPerimeterSpacing=0;endSize=10;" edge="1" target="RZ-fybv0RQsIUhOuBCEJ-28" parent="1" source="RZ-fybv0RQsIUhOuBCEJ-11">
          <mxGeometry relative="1" as="geometry">
            <mxPoint x="1190" y="455" as="sourcePoint" />
          </mxGeometry>
        </mxCell>
        <mxCell id="RZ-fybv0RQsIUhOuBCEJ-28" value="" style="ellipse;whiteSpace=wrap;html=1;align=center;aspect=fixed;fillColor=none;strokeColor=none;resizable=0;perimeter=centerPerimeter;rotatable=0;allowArrows=0;points=[];outlineConnect=1;" vertex="1" parent="1">
          <mxGeometry x="1385" y="370" width="10" height="10" as="geometry" />
        </mxCell>
        <mxCell id="RZ-fybv0RQsIUhOuBCEJ-30" value="" style="rounded=0;orthogonalLoop=1;jettySize=auto;html=1;endArrow=halfCircle;endFill=0;endSize=6;strokeWidth=1;sketch=0;" edge="1" target="RZ-fybv0RQsIUhOuBCEJ-32" parent="1" source="RZ-fybv0RQsIUhOuBCEJ-17">
          <mxGeometry relative="1" as="geometry">
            <mxPoint x="1450" y="465" as="sourcePoint" />
          </mxGeometry>
        </mxCell>
        <mxCell id="RZ-fybv0RQsIUhOuBCEJ-31" value="" style="rounded=0;orthogonalLoop=1;jettySize=auto;html=1;endArrow=oval;endFill=0;sketch=0;sourcePerimeterSpacing=0;targetPerimeterSpacing=0;endSize=10;exitX=0.5;exitY=1;exitDx=0;exitDy=0;" edge="1" target="RZ-fybv0RQsIUhOuBCEJ-32" parent="1" source="RZ-fybv0RQsIUhOuBCEJ-11">
          <mxGeometry relative="1" as="geometry">
            <mxPoint x="1410" y="465" as="sourcePoint" />
          </mxGeometry>
        </mxCell>
        <mxCell id="RZ-fybv0RQsIUhOuBCEJ-32" value="" style="ellipse;whiteSpace=wrap;html=1;align=center;aspect=fixed;fillColor=none;strokeColor=none;resizable=0;perimeter=centerPerimeter;rotatable=0;allowArrows=0;points=[];outlineConnect=1;" vertex="1" parent="1">
          <mxGeometry x="1385" y="520" width="10" height="10" as="geometry" />
        </mxCell>
        <mxCell id="RZ-fybv0RQsIUhOuBCEJ-34" value="" style="html=1;rounded=0;" vertex="1" parent="1">
          <mxGeometry x="1470" y="443" width="20" height="20" as="geometry" />
        </mxCell>
        <mxCell id="RZ-fybv0RQsIUhOuBCEJ-35" value="" style="endArrow=none;html=1;rounded=0;align=center;verticalAlign=top;endFill=0;labelBackgroundColor=none;endSize=2;" edge="1" source="RZ-fybv0RQsIUhOuBCEJ-34" target="RZ-fybv0RQsIUhOuBCEJ-36" parent="1">
          <mxGeometry relative="1" as="geometry" />
        </mxCell>
        <mxCell id="RZ-fybv0RQsIUhOuBCEJ-36" value="" style="shape=requiredInterface;html=1;fontSize=11;align=center;fillColor=none;points=[];aspect=fixed;resizable=0;verticalAlign=bottom;labelPosition=center;verticalLabelPosition=top;flipH=1;" vertex="1" parent="1">
          <mxGeometry x="1540" y="448" width="5" height="10" as="geometry" />
        </mxCell>
        <mxCell id="RZ-fybv0RQsIUhOuBCEJ-37" value="database" style="text;html=1;align=center;verticalAlign=middle;whiteSpace=wrap;rounded=0;" vertex="1" parent="1">
          <mxGeometry x="1560" y="438" width="60" height="30" as="geometry" />
        </mxCell>
        <mxCell id="RZ-fybv0RQsIUhOuBCEJ-38" value="" style="rounded=0;orthogonalLoop=1;jettySize=auto;html=1;endArrow=halfCircle;endFill=0;endSize=6;strokeWidth=1;sketch=0;exitX=0.5;exitY=1;exitDx=0;exitDy=0;" edge="1" target="RZ-fybv0RQsIUhOuBCEJ-40" parent="1" source="RZ-fybv0RQsIUhOuBCEJ-41">
          <mxGeometry relative="1" as="geometry">
            <mxPoint x="1290" y="615" as="sourcePoint" />
          </mxGeometry>
        </mxCell>
        <mxCell id="RZ-fybv0RQsIUhOuBCEJ-39" value="" style="rounded=0;orthogonalLoop=1;jettySize=auto;html=1;endArrow=oval;endFill=0;sketch=0;sourcePerimeterSpacing=0;targetPerimeterSpacing=0;endSize=10;exitX=0.5;exitY=0;exitDx=0;exitDy=0;" edge="1" target="RZ-fybv0RQsIUhOuBCEJ-40" parent="1" source="RZ-fybv0RQsIUhOuBCEJ-13">
          <mxGeometry relative="1" as="geometry">
            <mxPoint x="1250" y="615" as="sourcePoint" />
          </mxGeometry>
        </mxCell>
        <mxCell id="RZ-fybv0RQsIUhOuBCEJ-40" value="" style="ellipse;whiteSpace=wrap;html=1;align=center;aspect=fixed;fillColor=none;strokeColor=none;resizable=0;perimeter=centerPerimeter;rotatable=0;allowArrows=0;points=[];outlineConnect=1;" vertex="1" parent="1">
          <mxGeometry x="1135" y="530" width="10" height="10" as="geometry" />
        </mxCell>
        <mxCell id="RZ-fybv0RQsIUhOuBCEJ-41" value="«service»&lt;br&gt;&lt;b&gt;CycleService&lt;/b&gt;" style="html=1;dropTarget=0;whiteSpace=wrap;" vertex="1" parent="1">
          <mxGeometry x="1050" y="414" width="180" height="90" as="geometry" />
        </mxCell>
        <mxCell id="RZ-fybv0RQsIUhOuBCEJ-42" value="" style="shape=module;jettyWidth=8;jettyHeight=4;" vertex="1" parent="RZ-fybv0RQsIUhOuBCEJ-41">
          <mxGeometry x="1" width="20" height="20" relative="1" as="geometry">
            <mxPoint x="-27" y="7" as="offset" />
          </mxGeometry>
        </mxCell>
        <mxCell id="RZ-fybv0RQsIUhOuBCEJ-43" value="" style="rounded=0;orthogonalLoop=1;jettySize=auto;html=1;endArrow=halfCircle;endFill=0;endSize=6;strokeWidth=1;sketch=0;" edge="1" target="RZ-fybv0RQsIUhOuBCEJ-45" parent="1" source="RZ-fybv0RQsIUhOuBCEJ-41">
          <mxGeometry relative="1" as="geometry">
            <mxPoint x="1250" y="505" as="sourcePoint" />
          </mxGeometry>
        </mxCell>
        <mxCell id="RZ-fybv0RQsIUhOuBCEJ-44" value="" style="rounded=0;orthogonalLoop=1;jettySize=auto;html=1;endArrow=oval;endFill=0;sketch=0;sourcePerimeterSpacing=0;targetPerimeterSpacing=0;endSize=10;exitX=0;exitY=0;exitDx=0;exitDy=0;" edge="1" target="RZ-fybv0RQsIUhOuBCEJ-45" parent="1" source="RZ-fybv0RQsIUhOuBCEJ-17">
          <mxGeometry relative="1" as="geometry">
            <mxPoint x="1210" y="505" as="sourcePoint" />
          </mxGeometry>
        </mxCell>
        <mxCell id="RZ-fybv0RQsIUhOuBCEJ-45" value="" style="ellipse;whiteSpace=wrap;html=1;align=center;aspect=fixed;fillColor=none;strokeColor=none;resizable=0;perimeter=centerPerimeter;rotatable=0;allowArrows=0;points=[];outlineConnect=1;" vertex="1" parent="1">
          <mxGeometry x="1255" y="530" width="10" height="10" as="geometry" />
        </mxCell>
        <mxCell id="RZ-fybv0RQsIUhOuBCEJ-53" value="" style="group" vertex="1" connectable="0" parent="1">
          <mxGeometry x="300" y="169" width="340" height="538" as="geometry" />
        </mxCell>
        <mxCell id="RZ-fybv0RQsIUhOuBCEJ-1" value="&lt;p style=&quot;line-height: 120%; padding-bottom: 500px;&quot;&gt;«subsystem»&lt;br&gt;&lt;b&gt;View&lt;/b&gt;&lt;/p&gt;" style="html=1;dropTarget=0;whiteSpace=wrap;" vertex="1" parent="RZ-fybv0RQsIUhOuBCEJ-53">
          <mxGeometry x="-50" width="390" height="538" as="geometry" />
        </mxCell>
        <mxCell id="RZ-fybv0RQsIUhOuBCEJ-2" value="" style="shape=module;jettyWidth=8;jettyHeight=4;" vertex="1" parent="RZ-fybv0RQsIUhOuBCEJ-1">
          <mxGeometry x="1" width="20" height="20" relative="1" as="geometry">
            <mxPoint x="-27" y="7" as="offset" />
          </mxGeometry>
        </mxCell>
        <mxCell id="RZ-fybv0RQsIUhOuBCEJ-47" value="«UI»&lt;br&gt;&lt;b&gt;MainActivity&lt;/b&gt;" style="html=1;dropTarget=0;whiteSpace=wrap;" vertex="1" parent="RZ-fybv0RQsIUhOuBCEJ-53">
          <mxGeometry x="40" y="199.5" width="204" height="90" as="geometry" />
        </mxCell>
        <mxCell id="RZ-fybv0RQsIUhOuBCEJ-48" value="" style="shape=module;jettyWidth=8;jettyHeight=4;" vertex="1" parent="RZ-fybv0RQsIUhOuBCEJ-47">
          <mxGeometry x="1" width="20" height="20" relative="1" as="geometry">
            <mxPoint x="-27" y="7" as="offset" />
          </mxGeometry>
        </mxCell>
        <mxCell id="RZ-fybv0RQsIUhOuBCEJ-49" value="«UI»&lt;br&gt;&lt;b&gt;CalendarFragment&lt;/b&gt;" style="html=1;dropTarget=0;whiteSpace=wrap;" vertex="1" parent="RZ-fybv0RQsIUhOuBCEJ-53">
          <mxGeometry x="160" y="331" width="160" height="90" as="geometry" />
        </mxCell>
        <mxCell id="RZ-fybv0RQsIUhOuBCEJ-50" value="" style="shape=module;jettyWidth=8;jettyHeight=4;" vertex="1" parent="RZ-fybv0RQsIUhOuBCEJ-49">
          <mxGeometry x="1" width="20" height="20" relative="1" as="geometry">
            <mxPoint x="-27" y="7" as="offset" />
          </mxGeometry>
        </mxCell>
        <mxCell id="RZ-fybv0RQsIUhOuBCEJ-51" value="«UI»&lt;br&gt;&lt;b&gt;SettingsActivity&lt;/b&gt;" style="html=1;dropTarget=0;whiteSpace=wrap;" vertex="1" parent="RZ-fybv0RQsIUhOuBCEJ-53">
          <mxGeometry x="40" y="71" width="204" height="90" as="geometry" />
        </mxCell>
        <mxCell id="RZ-fybv0RQsIUhOuBCEJ-52" value="" style="shape=module;jettyWidth=8;jettyHeight=4;" vertex="1" parent="RZ-fybv0RQsIUhOuBCEJ-51">
          <mxGeometry x="1" width="20" height="20" relative="1" as="geometry">
            <mxPoint x="-27" y="7" as="offset" />
          </mxGeometry>
        </mxCell>
        <mxCell id="RZ-fybv0RQsIUhOuBCEJ-67" value="«UI»&lt;br&gt;&lt;b&gt;CycleInfoFragment&lt;/b&gt;" style="html=1;dropTarget=0;whiteSpace=wrap;" vertex="1" parent="RZ-fybv0RQsIUhOuBCEJ-53">
          <mxGeometry x="-30" y="391" width="160" height="90" as="geometry" />
        </mxCell>
        <mxCell id="RZ-fybv0RQsIUhOuBCEJ-68" value="" style="shape=module;jettyWidth=8;jettyHeight=4;" vertex="1" parent="RZ-fybv0RQsIUhOuBCEJ-67">
          <mxGeometry x="1" width="20" height="20" relative="1" as="geometry">
            <mxPoint x="-27" y="7" as="offset" />
          </mxGeometry>
        </mxCell>
        <mxCell id="RZ-fybv0RQsIUhOuBCEJ-86" value="" style="endArrow=none;html=1;rounded=0;entryX=0.25;entryY=1;entryDx=0;entryDy=0;exitX=0.5;exitY=0;exitDx=0;exitDy=0;" edge="1" parent="RZ-fybv0RQsIUhOuBCEJ-53" source="RZ-fybv0RQsIUhOuBCEJ-67" target="RZ-fybv0RQsIUhOuBCEJ-47">
          <mxGeometry width="50" height="50" relative="1" as="geometry">
            <mxPoint x="360" y="341" as="sourcePoint" />
            <mxPoint x="410" y="291" as="targetPoint" />
          </mxGeometry>
        </mxCell>
        <mxCell id="RZ-fybv0RQsIUhOuBCEJ-87" value="" style="endArrow=none;html=1;rounded=0;entryX=0.75;entryY=1;entryDx=0;entryDy=0;exitX=0.5;exitY=0;exitDx=0;exitDy=0;" edge="1" parent="RZ-fybv0RQsIUhOuBCEJ-53" source="RZ-fybv0RQsIUhOuBCEJ-49" target="RZ-fybv0RQsIUhOuBCEJ-47">
          <mxGeometry width="50" height="50" relative="1" as="geometry">
            <mxPoint x="360" y="341" as="sourcePoint" />
            <mxPoint x="410" y="291" as="targetPoint" />
          </mxGeometry>
        </mxCell>
        <mxCell id="RZ-fybv0RQsIUhOuBCEJ-94" value="" style="endArrow=none;html=1;rounded=0;entryX=0.5;entryY=1;entryDx=0;entryDy=0;" edge="1" parent="RZ-fybv0RQsIUhOuBCEJ-53" source="RZ-fybv0RQsIUhOuBCEJ-47" target="RZ-fybv0RQsIUhOuBCEJ-51">
          <mxGeometry width="50" height="50" relative="1" as="geometry">
            <mxPoint x="410" y="341" as="sourcePoint" />
            <mxPoint x="460" y="291" as="targetPoint" />
          </mxGeometry>
        </mxCell>
        <mxCell id="RZ-fybv0RQsIUhOuBCEJ-65" value="«presenter»&lt;br&gt;&lt;b&gt;CycleInfoPresenter&lt;/b&gt;" style="html=1;dropTarget=0;whiteSpace=wrap;" vertex="1" parent="1">
          <mxGeometry x="730" y="458" width="180" height="90" as="geometry" />
        </mxCell>
        <mxCell id="RZ-fybv0RQsIUhOuBCEJ-66" value="" style="shape=module;jettyWidth=8;jettyHeight=4;" vertex="1" parent="RZ-fybv0RQsIUhOuBCEJ-65">
          <mxGeometry x="1" width="20" height="20" relative="1" as="geometry">
            <mxPoint x="-27" y="7" as="offset" />
          </mxGeometry>
        </mxCell>
        <mxCell id="RZ-fybv0RQsIUhOuBCEJ-69" value="«presenter»&lt;br&gt;&lt;b&gt;CalendarPresenter&lt;/b&gt;" style="html=1;dropTarget=0;whiteSpace=wrap;" vertex="1" parent="1">
          <mxGeometry x="730" y="340" width="180" height="90" as="geometry" />
        </mxCell>
        <mxCell id="RZ-fybv0RQsIUhOuBCEJ-70" value="" style="shape=module;jettyWidth=8;jettyHeight=4;" vertex="1" parent="RZ-fybv0RQsIUhOuBCEJ-69">
          <mxGeometry x="1" width="20" height="20" relative="1" as="geometry">
            <mxPoint x="-27" y="7" as="offset" />
          </mxGeometry>
        </mxCell>
        <mxCell id="RZ-fybv0RQsIUhOuBCEJ-71" value="«presenter»&lt;br&gt;&lt;b&gt;SettingsPresenter&lt;/b&gt;" style="html=1;dropTarget=0;whiteSpace=wrap;" vertex="1" parent="1">
          <mxGeometry x="730" y="230" width="180" height="90" as="geometry" />
        </mxCell>
        <mxCell id="RZ-fybv0RQsIUhOuBCEJ-72" value="" style="shape=module;jettyWidth=8;jettyHeight=4;" vertex="1" parent="RZ-fybv0RQsIUhOuBCEJ-71">
          <mxGeometry x="1" width="20" height="20" relative="1" as="geometry">
            <mxPoint x="-27" y="7" as="offset" />
          </mxGeometry>
        </mxCell>
        <mxCell id="RZ-fybv0RQsIUhOuBCEJ-74" value="" style="rounded=0;orthogonalLoop=1;jettySize=auto;html=1;endArrow=halfCircle;endFill=0;endSize=6;strokeWidth=1;sketch=0;exitX=1;exitY=0.5;exitDx=0;exitDy=0;" edge="1" target="RZ-fybv0RQsIUhOuBCEJ-76" parent="1" source="RZ-fybv0RQsIUhOuBCEJ-71">
          <mxGeometry relative="1" as="geometry">
            <mxPoint x="1130" y="365" as="sourcePoint" />
          </mxGeometry>
        </mxCell>
        <mxCell id="RZ-fybv0RQsIUhOuBCEJ-75" value="" style="rounded=0;orthogonalLoop=1;jettySize=auto;html=1;endArrow=oval;endFill=0;sketch=0;sourcePerimeterSpacing=0;targetPerimeterSpacing=0;endSize=10;exitX=0;exitY=0.5;exitDx=0;exitDy=0;" edge="1" target="RZ-fybv0RQsIUhOuBCEJ-76" parent="1" source="RZ-fybv0RQsIUhOuBCEJ-15">
          <mxGeometry relative="1" as="geometry">
            <mxPoint x="1090" y="365" as="sourcePoint" />
          </mxGeometry>
        </mxCell>
        <mxCell id="RZ-fybv0RQsIUhOuBCEJ-76" value="" style="ellipse;whiteSpace=wrap;html=1;align=center;aspect=fixed;fillColor=none;strokeColor=none;resizable=0;perimeter=centerPerimeter;rotatable=0;allowArrows=0;points=[];outlineConnect=1;" vertex="1" parent="1">
          <mxGeometry x="980" y="280" width="10" height="10" as="geometry" />
        </mxCell>
        <mxCell id="RZ-fybv0RQsIUhOuBCEJ-77" value="" style="rounded=0;orthogonalLoop=1;jettySize=auto;html=1;endArrow=halfCircle;endFill=0;endSize=6;strokeWidth=1;sketch=0;exitX=1;exitY=0.5;exitDx=0;exitDy=0;" edge="1" target="RZ-fybv0RQsIUhOuBCEJ-79" parent="1" source="RZ-fybv0RQsIUhOuBCEJ-69">
          <mxGeometry relative="1" as="geometry">
            <mxPoint x="990" y="435" as="sourcePoint" />
          </mxGeometry>
        </mxCell>
        <mxCell id="RZ-fybv0RQsIUhOuBCEJ-78" value="" style="rounded=0;orthogonalLoop=1;jettySize=auto;html=1;endArrow=oval;endFill=0;sketch=0;sourcePerimeterSpacing=0;targetPerimeterSpacing=0;endSize=10;exitX=0;exitY=0.25;exitDx=0;exitDy=0;" edge="1" target="RZ-fybv0RQsIUhOuBCEJ-79" parent="1" source="RZ-fybv0RQsIUhOuBCEJ-41">
          <mxGeometry relative="1" as="geometry">
            <mxPoint x="950" y="435" as="sourcePoint" />
          </mxGeometry>
        </mxCell>
        <mxCell id="RZ-fybv0RQsIUhOuBCEJ-79" value="" style="ellipse;whiteSpace=wrap;html=1;align=center;aspect=fixed;fillColor=none;strokeColor=none;resizable=0;perimeter=centerPerimeter;rotatable=0;allowArrows=0;points=[];outlineConnect=1;" vertex="1" parent="1">
          <mxGeometry x="980" y="409" width="10" height="10" as="geometry" />
        </mxCell>
        <mxCell id="RZ-fybv0RQsIUhOuBCEJ-80" value="" style="rounded=0;orthogonalLoop=1;jettySize=auto;html=1;endArrow=halfCircle;endFill=0;endSize=6;strokeWidth=1;sketch=0;exitX=1;exitY=0.5;exitDx=0;exitDy=0;" edge="1" target="RZ-fybv0RQsIUhOuBCEJ-82" parent="1" source="RZ-fybv0RQsIUhOuBCEJ-65">
          <mxGeometry relative="1" as="geometry">
            <mxPoint x="1010" y="465" as="sourcePoint" />
          </mxGeometry>
        </mxCell>
        <mxCell id="RZ-fybv0RQsIUhOuBCEJ-81" value="" style="rounded=0;orthogonalLoop=1;jettySize=auto;html=1;endArrow=oval;endFill=0;sketch=0;sourcePerimeterSpacing=0;targetPerimeterSpacing=0;endSize=10;exitX=0;exitY=0.75;exitDx=0;exitDy=0;" edge="1" target="RZ-fybv0RQsIUhOuBCEJ-82" parent="1" source="RZ-fybv0RQsIUhOuBCEJ-41">
          <mxGeometry relative="1" as="geometry">
            <mxPoint x="970" y="465" as="sourcePoint" />
          </mxGeometry>
        </mxCell>
        <mxCell id="RZ-fybv0RQsIUhOuBCEJ-82" value="" style="ellipse;whiteSpace=wrap;html=1;align=center;aspect=fixed;fillColor=none;strokeColor=none;resizable=0;perimeter=centerPerimeter;rotatable=0;allowArrows=0;points=[];outlineConnect=1;" vertex="1" parent="1">
          <mxGeometry x="980" y="488" width="10" height="10" as="geometry" />
        </mxCell>
        <mxCell id="RZ-fybv0RQsIUhOuBCEJ-83" value="" style="rounded=0;orthogonalLoop=1;jettySize=auto;html=1;endArrow=halfCircle;endFill=0;endSize=6;strokeWidth=1;sketch=0;exitX=0;exitY=0.5;exitDx=0;exitDy=0;" edge="1" target="RZ-fybv0RQsIUhOuBCEJ-85" parent="1" source="RZ-fybv0RQsIUhOuBCEJ-71">
          <mxGeometry relative="1" as="geometry">
            <mxPoint x="740" y="365" as="sourcePoint" />
          </mxGeometry>
        </mxCell>
        <mxCell id="RZ-fybv0RQsIUhOuBCEJ-84" value="" style="rounded=0;orthogonalLoop=1;jettySize=auto;html=1;endArrow=oval;endFill=0;sketch=0;sourcePerimeterSpacing=0;targetPerimeterSpacing=0;endSize=10;" edge="1" target="RZ-fybv0RQsIUhOuBCEJ-85" parent="1" source="RZ-fybv0RQsIUhOuBCEJ-51">
          <mxGeometry relative="1" as="geometry">
            <mxPoint x="700" y="365" as="sourcePoint" />
          </mxGeometry>
        </mxCell>
        <mxCell id="RZ-fybv0RQsIUhOuBCEJ-85" value="" style="ellipse;whiteSpace=wrap;html=1;align=center;aspect=fixed;fillColor=none;strokeColor=none;resizable=0;perimeter=centerPerimeter;rotatable=0;allowArrows=0;points=[];outlineConnect=1;" vertex="1" parent="1">
          <mxGeometry x="650" y="280" width="10" height="10" as="geometry" />
        </mxCell>
        <mxCell id="RZ-fybv0RQsIUhOuBCEJ-88" value="" style="rounded=0;orthogonalLoop=1;jettySize=auto;html=1;endArrow=halfCircle;endFill=0;endSize=6;strokeWidth=1;sketch=0;exitX=0;exitY=0.5;exitDx=0;exitDy=0;" edge="1" target="RZ-fybv0RQsIUhOuBCEJ-90" parent="1" source="RZ-fybv0RQsIUhOuBCEJ-69">
          <mxGeometry relative="1" as="geometry">
            <mxPoint x="730" y="515" as="sourcePoint" />
          </mxGeometry>
        </mxCell>
        <mxCell id="RZ-fybv0RQsIUhOuBCEJ-89" value="" style="rounded=0;orthogonalLoop=1;jettySize=auto;html=1;endArrow=oval;endFill=0;sketch=0;sourcePerimeterSpacing=0;targetPerimeterSpacing=0;endSize=10;exitX=1;exitY=0.5;exitDx=0;exitDy=0;" edge="1" target="RZ-fybv0RQsIUhOuBCEJ-90" parent="1" source="RZ-fybv0RQsIUhOuBCEJ-49">
          <mxGeometry relative="1" as="geometry">
            <mxPoint x="690" y="515" as="sourcePoint" />
          </mxGeometry>
        </mxCell>
        <mxCell id="RZ-fybv0RQsIUhOuBCEJ-90" value="" style="ellipse;whiteSpace=wrap;html=1;align=center;aspect=fixed;fillColor=none;strokeColor=none;resizable=0;perimeter=centerPerimeter;rotatable=0;allowArrows=0;points=[];outlineConnect=1;" vertex="1" parent="1">
          <mxGeometry x="650" y="504" width="10" height="10" as="geometry" />
        </mxCell>
        <mxCell id="RZ-fybv0RQsIUhOuBCEJ-91" value="" style="rounded=0;orthogonalLoop=1;jettySize=auto;html=1;endArrow=halfCircle;endFill=0;endSize=6;strokeWidth=1;sketch=0;exitX=0;exitY=0.5;exitDx=0;exitDy=0;" edge="1" target="RZ-fybv0RQsIUhOuBCEJ-93" parent="1" source="RZ-fybv0RQsIUhOuBCEJ-65">
          <mxGeometry relative="1" as="geometry">
            <mxPoint x="730" y="515" as="sourcePoint" />
          </mxGeometry>
        </mxCell>
        <mxCell id="RZ-fybv0RQsIUhOuBCEJ-92" value="" style="rounded=0;orthogonalLoop=1;jettySize=auto;html=1;endArrow=oval;endFill=0;sketch=0;sourcePerimeterSpacing=0;targetPerimeterSpacing=0;endSize=10;exitX=1;exitY=0.5;exitDx=0;exitDy=0;" edge="1" target="RZ-fybv0RQsIUhOuBCEJ-93" parent="1" source="RZ-fybv0RQsIUhOuBCEJ-67">
          <mxGeometry relative="1" as="geometry">
            <mxPoint x="690" y="515" as="sourcePoint" />
          </mxGeometry>
        </mxCell>
        <mxCell id="RZ-fybv0RQsIUhOuBCEJ-93" value="" style="ellipse;whiteSpace=wrap;html=1;align=center;aspect=fixed;fillColor=none;strokeColor=none;resizable=0;perimeter=centerPerimeter;rotatable=0;allowArrows=0;points=[];outlineConnect=1;" vertex="1" parent="1">
          <mxGeometry x="650" y="600" width="10" height="10" as="geometry" />
        </mxCell>
      </root>
    </mxGraphModel>
  </diagram>
</mxfile>
